# xmcd
#
# Track frame offsets:
#	150
#	19078
#	38943
#	58119
#	79289
#	94889
#	119226
#	139449
#	154793
#	169254
#	188259
#	211090
#	231968
#
# Disc length: 3481 seconds
#
# Revision: 2
# Processed by: cddbd v1.5.2PL0 Copyright (c) Steve Scherf et al.
# Submitted via: EasyCDDAExtractor 11.0.0.1
#
DISCID=b60d970d
DTITLE=Levon Helm Band, Starring Little Sammy Davis - Midnight Ramble Sessions
DTITLE=, Vol.01
DYEAR=2004
DGENRE=Blues
TTITLE0=Sad Hours
TTITLE1=Oh, Baby
TTITLE2=I'm Ready
TTITLE3=Blow, Wind, Blow
TTITLE4=Blues Without A Feeling
TTITLE5=The New Scratch My Back
TTITLE6=I Ain't Lyin'
TTITLE7=I'm Crazy About You, Baby
TTITLE8=Boom Boom, Out Go The Lights
TTITLE9=Forty Days And Forty Nights
TTITLE10=Going Down To Main Street
TTITLE11=Everything Gonna Be Alright/Wrapped Up In Love Again
TTITLE12=California Blues
EXTD=
EXTT0=
EXTT1=
EXTT2=
EXTT3=
EXTT4=
EXTT5=
EXTT6=
EXTT7=
EXTT8=
EXTT9=
EXTT10=
EXTT11=
EXTT12=
PLAYORDER=
